<svg width="104" height="62" viewBox="0 0 104 62" fill="none" xmlns="http://www.w3.org/2000/svg">
<rect x="0.55571" y="25.7279" width="97" height="34" rx="17" transform="rotate(-15 0.55571 25.7279)" fill="#5A09DE"/>
<path d="M16.3274 34.5712L18.4953 42.6618L16.8725 43.0966L14.7047 35.006L16.3274 34.5712ZM22.185 32.4799L24.4833 41.0573L22.8605 41.4922L20.5622 32.9147L22.185 32.4799ZM28.9659 39.968C28.3477 40.1337 27.7551 40.1475 27.1881 40.0096C26.619 39.8639 26.1242 39.5782 25.7037 39.1526C25.291 38.7248 24.9966 38.1825 24.8206 37.5257C24.6446 36.8689 24.6322 36.251 24.7836 35.6721C24.9426 35.0912 25.2371 34.5982 25.6669 34.1931C26.0946 33.7804 26.6176 33.4911 27.2358 33.3255C27.854 33.1599 28.4515 33.1488 29.0283 33.2924C29.603 33.4283 30.1007 33.7091 30.5212 34.1347C30.9494 34.5584 31.2515 35.0986 31.4275 35.7554C31.6035 36.4122 31.6081 37.0322 31.4413 37.6152C31.2823 38.1962 30.985 38.6941 30.5495 39.1089C30.1197 39.5139 29.5919 39.8003 28.9659 39.968ZM28.587 38.5539C28.8807 38.4752 29.1364 38.3322 29.3541 38.1248C29.5775 37.9075 29.7282 37.6353 29.8061 37.308C29.884 36.9806 29.8681 36.6122 29.7584 36.2026C29.5948 35.5922 29.3073 35.1681 28.8958 34.9306C28.4899 34.6832 28.0551 34.6216 27.5915 34.7458C27.1279 34.8701 26.7821 35.1408 26.5543 35.5579C26.3322 35.9653 26.3029 36.4742 26.4665 37.0847C26.6301 37.6952 26.9071 38.1262 27.2975 38.3777C27.6935 38.6194 28.1234 38.6782 28.587 38.5539ZM35.7551 36.4345L36.0578 31.0734L37.7849 30.6107L37.1294 37.6688L35.1589 38.1968L31.0737 32.4089L32.8123 31.9431L35.7551 36.4345ZM45.4888 31.8386C45.5509 32.0704 45.5914 32.2832 45.6102 32.4769L40.9158 33.7348C41.0786 34.1881 41.3382 34.5078 41.6946 34.6939C42.0509 34.88 42.4377 34.9172 42.8549 34.8054C43.4577 34.6439 43.8172 34.2701 43.9335 33.684L45.6837 33.2151C45.6639 33.8829 45.4451 34.4882 45.0273 35.0308C44.6074 35.5657 44.015 35.9357 43.25 36.1406C42.6318 36.3063 42.0392 36.3201 41.4722 36.1822C40.9108 36.0344 40.4237 35.7467 40.011 35.319C39.6059 34.8892 39.3154 34.3458 39.1394 33.689C38.9613 33.0244 38.9402 32.4048 39.0761 31.83C39.212 31.2553 39.4871 30.7675 39.9015 30.3666C40.3158 29.9657 40.8398 29.6803 41.4735 29.5105C42.0839 29.3469 42.6639 29.3323 43.2134 29.4667C43.7706 29.599 44.2458 29.8733 44.639 30.2898C45.0378 30.6964 45.3211 31.2127 45.4888 31.8386ZM43.6839 31.8253C43.5643 31.4101 43.3246 31.1182 42.9647 30.9496C42.6028 30.7733 42.2093 30.742 41.7843 30.8559C41.3824 30.9636 41.0756 31.1783 40.8636 31.5002C40.6574 31.8122 40.5813 32.1928 40.6354 32.6421L43.6839 31.8253ZM49.049 31.0089C48.8751 30.3598 48.8483 29.7499 48.9688 29.1793C49.0969 28.6066 49.3488 28.125 49.7246 27.7345C50.1003 27.3439 50.5625 27.0751 51.1111 26.9281C51.5284 26.8163 51.9512 26.8024 52.3795 26.8864C52.8058 26.9627 53.1713 27.1215 53.4762 27.3628L52.6594 24.3143L54.3053 23.8733L56.6036 32.4507L54.9577 32.8918L54.703 31.9413C54.587 32.3119 54.3733 32.6425 54.0618 32.933C53.7504 33.2235 53.3551 33.433 52.876 33.5613C52.3351 33.7063 51.8033 33.6997 51.2806 33.5416C50.7578 33.3835 50.2978 33.0885 49.9005 32.6566C49.5088 32.215 49.225 31.6657 49.049 31.0089ZM54.109 29.6779C54.0034 29.2838 53.836 28.9684 53.6069 28.7316C53.3758 28.4871 53.1091 28.3266 52.8071 28.2502C52.5029 28.1661 52.2002 28.1644 51.8988 28.2451C51.5974 28.3259 51.3389 28.4738 51.1233 28.689C50.9076 28.9041 50.7569 29.1764 50.6713 29.5058C50.5913 29.8254 50.603 30.1784 50.7065 30.5647C50.8101 30.9511 50.9785 31.2704 51.2117 31.5226C51.4506 31.7651 51.7182 31.9294 52.0146 32.0156C52.3188 32.0998 52.6177 32.1025 52.9113 32.0238C53.2127 31.9431 53.4751 31.7941 53.6984 31.5769C53.9198 31.3519 54.0704 31.0797 54.1504 30.7601C54.2284 30.4327 54.2146 30.072 54.109 29.6779ZM63.2604 27.0767C63.3225 27.3086 63.3629 27.5213 63.3817 27.7151L58.6873 28.9729C58.8502 29.4262 59.1098 29.7459 59.4661 29.9321C59.8224 30.1182 60.2092 30.1553 60.6265 30.0435C61.2292 29.882 61.5887 29.5082 61.705 28.9222L63.4552 28.4532C63.4354 29.1211 63.2166 29.7263 62.7988 30.269C62.379 30.8038 61.7865 31.1738 61.0215 31.3788C60.4033 31.5444 59.8107 31.5583 59.2437 31.4203C58.6823 31.2726 58.1953 30.9848 57.7825 30.5571C57.3774 30.1273 57.0869 29.584 56.9109 28.9271C56.7329 28.2626 56.7118 27.6429 56.8476 27.0682C56.9835 26.4934 57.2586 26.0056 57.673 25.6047C58.0873 25.2038 58.6113 24.9184 59.245 24.7487C59.8554 24.5851 60.4354 24.5705 60.9849 24.7048C61.5422 24.8371 62.0174 25.1115 62.4105 25.5279C62.8094 25.9345 63.0926 26.4508 63.2604 27.0767ZM61.4554 27.0634C61.3359 26.6482 61.0962 26.3563 60.7363 26.1877C60.3743 26.0114 59.9808 25.9802 59.5558 26.0941C59.154 26.2017 58.8471 26.4165 58.6352 26.7383C58.4289 27.0503 58.3528 27.431 58.4069 27.8803L61.4554 27.0634ZM67.8277 29.5551C67.3022 29.6959 66.806 29.7294 66.339 29.6558C65.87 29.5744 65.4683 29.4046 65.1341 29.1463C64.8076 28.8859 64.5799 28.5618 64.4512 28.1739L66.0855 27.736C66.1827 27.975 66.3573 28.1477 66.6094 28.254C66.8693 28.3583 67.1576 28.368 67.4744 28.2832C67.7835 28.2003 68.0065 28.0743 68.1434 27.9051C68.288 27.7339 68.3344 27.5516 68.2827 27.3585C68.2267 27.1498 68.0772 27.0243 67.8339 26.9818C67.5962 26.9295 67.229 26.9037 66.7323 26.9043C66.2221 26.9167 65.7959 26.9025 65.4537 26.8617C65.1192 26.8188 64.8057 26.6999 64.5133 26.505C64.2286 26.3079 64.0283 25.993 63.9123 25.5603C63.8171 25.2049 63.8306 24.8534 63.9528 24.5059C64.0828 24.1564 64.3143 23.8459 64.6474 23.5744C64.9882 23.3009 65.4175 23.0947 65.9352 22.956C66.7002 22.751 67.3625 22.7806 67.9219 23.0448C68.4793 23.3013 68.8681 23.7479 69.0884 24.3846L67.5352 24.8008C67.4437 24.552 67.2817 24.38 67.0491 24.285C66.8223 24.1801 66.5504 24.1702 66.2336 24.255C65.94 24.3337 65.7265 24.4489 65.5932 24.6006C65.4677 24.7502 65.4308 24.9216 65.4825 25.1147C65.5405 25.3311 65.6932 25.4683 65.9406 25.5262C66.186 25.5764 66.5521 25.5984 67.0391 25.5921C67.5338 25.5838 67.9484 25.6011 68.2829 25.644C68.6174 25.6869 68.928 25.8107 69.2148 26.0154C69.5072 26.2104 69.7143 26.5193 69.8359 26.9423C69.9352 27.3132 69.92 27.6734 69.79 28.023C69.6678 28.3704 69.4362 28.681 69.0954 28.9545C68.7603 29.2182 68.3377 29.4184 67.8277 29.5551ZM70.556 21.0097C70.2701 21.0864 70.0067 21.0617 69.7659 20.9357C69.5308 20.7999 69.377 20.5968 69.3045 20.3264C69.232 20.0559 69.2647 19.807 69.4025 19.5796C69.546 19.3423 69.7607 19.1854 70.0467 19.1088C70.3326 19.0322 70.5931 19.0618 70.8283 19.1975C71.0691 19.3235 71.2257 19.5217 71.2982 19.7922C71.3706 20.0626 71.3351 20.3165 71.1916 20.5537C71.0538 20.7811 70.8419 20.9331 70.556 21.0097ZM71.5608 21.5605L73.2814 27.9819L71.6587 28.4167L69.938 21.9953L71.5608 21.5605ZM75.6514 20.3526C76.1305 20.2242 76.5775 20.2079 76.9925 20.3038C77.4053 20.392 77.7565 20.5588 78.0459 20.8042L77.8005 19.8885L79.4349 19.4506L81.1679 25.9184C81.3273 26.5135 81.3494 27.0749 81.2341 27.6027C81.1208 28.1383 80.8609 28.6055 80.4543 29.0043C80.0497 29.4109 79.5074 29.7052 78.8274 29.8875C77.9156 30.1318 77.1091 30.1201 76.4079 29.8525C75.7145 29.5828 75.2308 29.0912 74.9568 28.3778L76.568 27.9461C76.7316 28.217 76.9754 28.4001 77.2991 28.4956C77.6326 28.5967 78.0003 28.5934 78.4021 28.4858C78.8735 28.3595 79.2177 28.114 79.4347 27.7494C79.6538 27.3925 79.6868 26.9282 79.5336 26.3564L79.2665 25.3595C79.1386 25.7168 78.9161 26.0456 78.599 26.3459C78.2897 26.6441 77.8993 26.8564 77.4279 26.9827C76.887 27.1276 76.3552 27.121 75.8324 26.963C75.3097 26.8049 74.8497 26.5099 74.4524 26.078C74.0607 25.6363 73.7769 25.0871 73.6009 24.4302C73.427 23.7811 73.4002 23.1713 73.5206 22.6007C73.6488 22.028 73.8968 21.5474 74.2648 21.1589C74.6406 20.7684 75.1027 20.4996 75.6514 20.3526ZM78.6608 23.0993C78.5552 22.7052 78.3879 22.3897 78.1588 22.153C77.9276 21.9085 77.661 21.748 77.3589 21.6716C77.0548 21.5874 76.7521 21.5857 76.4507 21.6665C76.1493 21.7472 75.8908 21.8952 75.6751 22.1103C75.4595 22.3255 75.3088 22.5977 75.2231 22.9271C75.1431 23.2467 75.1549 23.5997 75.2584 23.9861C75.3619 24.3725 75.5303 24.6918 75.7636 24.944C76.0024 25.1864 76.2701 25.3508 76.5665 25.437C76.8706 25.5211 77.1695 25.5239 77.4632 25.4452C77.7646 25.3644 78.0269 25.2154 78.2503 24.9982C78.4716 24.7733 78.6223 24.501 78.7023 24.1814C78.7803 23.8541 78.7664 23.4934 78.6608 23.0993ZM84.5534 17.9797C85.3184 17.7747 86.0018 17.8525 86.6036 18.213C87.2034 18.5658 87.6192 19.1749 87.8511 20.0404L88.8605 23.8075L87.2377 24.2423L86.2874 20.6955C86.1507 20.1855 85.9186 19.8294 85.5912 19.6273C85.2616 19.4174 84.8766 19.3715 84.4362 19.4895C83.988 19.6096 83.6698 19.8439 83.4816 20.1925C83.299 20.5313 83.2761 20.9557 83.4128 21.4657L84.3631 25.0126L82.7404 25.4474L81.0198 19.0259L82.6425 18.5911L82.8568 19.3909C82.9986 19.0547 83.215 18.7649 83.5059 18.5213C83.8024 18.2679 84.1516 18.0874 84.5534 17.9797Z" fill="white"/>
<path d="M72.2482 58.2818L67.3531 37.9126L83.2953 51.3549L75.0189 50.138L72.2482 58.2818Z" fill="#595959"/>
<path d="M72.8857 56.3693L67.9906 36L83.9328 49.4423L75.6564 48.2255L72.8857 56.3693Z" fill="#EBE9E9"/>
</svg>
