<svg width="35" height="35" viewBox="0 0 35 35" fill="none" xmlns="http://www.w3.org/2000/svg">
<path d="M12.9162 17.1175L10.8541 19.1795L17.0418 25.3687L23.2295 19.181L21.166 17.1189L18.5001 19.7833L18.5001 8.79184L15.5835 8.79184L15.5835 19.7833L12.9162 17.1175Z" fill="#721BE0"/>
<path fill-rule="evenodd" clip-rule="evenodd" d="M5.69891 28.3846C11.9639 34.6496 22.1197 34.6496 28.3847 28.3846C34.6497 22.1196 34.6497 11.9637 28.3847 5.69873C22.1197 -0.566269 11.9639 -0.56627 5.69892 5.69873C-0.566083 11.9637 -0.566084 22.1196 5.69891 28.3846ZM7.761 26.3225C10.2224 28.7839 13.5608 30.1667 17.0418 30.1667C20.5228 30.1667 23.8612 28.7839 26.3227 26.3225C28.7841 23.861 30.1669 20.5226 30.1669 17.0416C30.1669 13.5607 28.7841 10.2222 26.3227 7.76081C23.8612 5.29938 20.5228 3.91657 17.0418 3.91657C13.5608 3.91657 10.2224 5.29938 7.761 7.76081C5.29957 10.2222 3.91675 13.5607 3.91675 17.0416C3.91675 20.5226 5.29957 23.861 7.761 26.3225Z" fill="#721BE0"/>
</svg>
