<svg width="88" height="56" viewBox="0 0 88 56" fill="none" xmlns="http://www.w3.org/2000/svg">
<rect x="8.79985" width="81" height="34" rx="17" transform="rotate(15 8.79985 0)" fill="#B413A4"/>
<path d="M14.9826 19.0493C15.1959 18.2534 15.5641 17.5901 16.0873 17.0594C16.6203 16.5231 17.2424 16.1639 17.9538 15.9818C18.675 15.794 19.4219 15.8037 20.1947 16.0107C21.0988 16.253 21.8287 16.6971 22.3845 17.3429C22.9403 17.9888 23.2436 18.7575 23.2946 19.649L21.4285 19.149C21.3465 18.7129 21.1614 18.3528 20.8732 18.0685C20.5927 17.7863 20.2322 17.5861 19.7917 17.4681C19.3204 17.3418 18.8692 17.341 18.4382 17.4657C18.0171 17.5848 17.6483 17.8173 17.332 18.1632C17.0234 18.5112 16.7967 18.9556 16.6517 19.4965C16.5089 20.0297 16.483 20.528 16.5742 20.9914C16.6752 21.4491 16.8772 21.8387 17.1804 22.1601C17.4933 22.4759 17.8855 22.6969 18.3568 22.8232C18.7973 22.9412 19.2096 22.9482 19.5936 22.844C19.9874 22.7342 20.3288 22.511 20.6178 22.1743L22.484 22.6743C21.992 23.4287 21.3439 23.9466 20.5396 24.228C19.7452 24.5038 18.892 24.5195 17.9802 24.2752C17.2075 24.0682 16.5547 23.7069 16.022 23.1915C15.499 22.6703 15.1398 22.0482 14.9443 21.3249C14.7566 20.6038 14.7694 19.8452 14.9826 19.0493ZM26.263 20.6059C26.5628 20.3218 26.9047 20.1277 27.2887 20.0236C27.6805 19.9215 28.0927 19.9284 28.5255 20.0444L28.0689 21.7483L27.6401 21.6333C27.13 21.4967 26.7116 21.5129 26.3847 21.6821C26.0655 21.8533 25.8262 22.2364 25.6667 22.8314L24.8095 26.0306L23.1868 25.5958L24.9074 19.1743L26.5301 19.6091L26.263 20.6059ZM34.74 25.1011C34.6779 25.3329 34.6065 25.5374 34.5259 25.7146L29.8315 24.4567C29.7459 24.9307 29.8109 25.3374 30.0264 25.6768C30.2419 26.0161 30.5583 26.2417 30.9756 26.3535C31.5783 26.515 32.0766 26.371 32.4703 25.9216L34.2206 26.3906C33.8695 26.9591 33.3774 27.3739 32.7442 27.6349C32.1132 27.8882 31.4151 27.9124 30.6501 27.7074C30.0319 27.5417 29.5118 27.2574 29.0897 26.8544C28.6774 26.4458 28.3995 25.9531 28.2559 25.3763C28.12 24.8015 28.14 24.1857 28.316 23.5289C28.4941 22.8643 28.7857 22.3171 29.1907 21.8873C29.5958 21.4575 30.0779 21.1726 30.6372 21.0326C31.1965 20.8926 31.793 20.9075 32.4266 21.0773C33.0371 21.2408 33.5467 21.5182 33.9554 21.9093C34.3718 22.3024 34.6462 22.7777 34.7785 23.3349C34.9205 23.8864 34.9077 24.4752 34.74 25.1011ZM33.1835 24.1871C33.2876 23.7678 33.226 23.3951 32.9986 23.0692C32.7733 22.7355 32.4481 22.5117 32.0231 22.3978C31.6213 22.2901 31.2481 22.3227 30.9037 22.4954C30.5691 22.6625 30.3128 22.9541 30.1351 23.3703L33.1835 24.1871ZM35.4761 25.4226C35.6501 24.7735 35.9318 24.232 36.3214 23.798C36.7187 23.3661 37.1739 23.074 37.6868 22.9215C38.2075 22.7712 38.7421 22.7695 39.2908 22.9165C39.7699 23.0449 40.1612 23.2533 40.4649 23.5417C40.7764 23.8322 41.0009 24.1533 41.1386 24.5049L41.384 23.5892L43.0183 24.0271L41.2977 30.4486L39.6633 30.0106L39.9149 29.0718C39.6255 29.3172 39.2685 29.4907 38.8437 29.5923C38.4288 29.6881 37.9817 29.6719 37.5026 29.5435C36.9617 29.3986 36.5044 29.1269 36.1308 28.7287C35.7649 28.3325 35.5178 27.848 35.3897 27.2753C35.2713 26.697 35.3001 26.0794 35.4761 25.4226ZM40.5237 26.7999C40.6293 26.4058 40.6421 26.049 40.562 25.7294C40.4841 25.402 40.3334 25.1298 40.11 24.9126C39.8887 24.6876 39.6274 24.5348 39.326 24.454C39.0246 24.3733 38.7268 24.3721 38.4324 24.4506C38.1381 24.5291 37.8715 24.6896 37.6326 24.932C37.4035 25.1688 37.2372 25.4804 37.1337 25.8667C37.0301 26.2531 37.0163 26.6138 37.0922 26.9489C37.1778 27.2783 37.3275 27.5544 37.5411 27.7773C37.7624 28.0022 38.0199 28.154 38.3135 28.2327C38.6149 28.3135 38.9166 28.3156 39.2187 28.2392C39.5228 28.155 39.7894 27.9946 40.0185 27.7578C40.2497 27.5133 40.4181 27.194 40.5237 26.7999ZM46.1354 26.291L45.303 29.3974C45.2451 29.6138 45.2528 29.7857 45.3264 29.913C45.4097 30.0347 45.575 30.1287 45.8223 30.195L46.5757 30.3969L46.2092 31.7646L45.1892 31.4913C43.8215 31.1248 43.3157 30.277 43.6718 28.9479L44.5011 25.8531L43.736 25.6481L44.0932 24.3151L44.8582 24.5201L45.2837 22.9321L46.9181 23.37L46.4926 24.958L47.9299 25.3431L47.5727 26.6761L46.1354 26.291ZM50.125 25.1114C49.8391 25.0348 49.6233 24.8817 49.4778 24.6522C49.342 24.4171 49.3104 24.1643 49.3828 23.8938C49.4553 23.6234 49.6081 23.4241 49.8412 23.2961C50.084 23.1624 50.3484 23.1338 50.6344 23.2104C50.9203 23.2871 51.1311 23.4429 51.2669 23.6781C51.4124 23.9076 51.449 24.1576 51.3765 24.428C51.304 24.6985 51.1464 24.9005 50.9035 25.0342C50.6704 25.1623 50.4109 25.188 50.125 25.1114ZM50.7198 26.0907L48.9992 32.5122L47.3764 32.0774L49.097 25.6559L50.7198 26.0907ZM53.6807 32.164L56.6234 27.6726L58.3505 28.1353L54.2537 33.9201L52.2832 33.3921L51.6392 26.3371L53.3779 26.8029L53.6807 32.164ZM60.2899 27.8351C60.0039 27.7584 59.7882 27.6054 59.6426 27.3759C59.5069 27.1407 59.4752 26.8879 59.5477 26.6175C59.6202 26.347 59.7729 26.1478 60.006 26.0197C60.2489 25.886 60.5133 25.8575 60.7992 25.9341C61.0851 26.0107 61.296 26.1666 61.4317 26.4017C61.5773 26.6312 61.6138 26.8812 61.5414 27.1517C61.4689 27.4221 61.3112 27.6242 61.0683 27.7579C60.8353 27.8859 60.5758 27.9117 60.2899 27.8351ZM60.8847 28.8144L59.164 35.2358L57.5413 34.801L59.2619 28.3795L60.8847 28.8144ZM64.0201 31.0832L63.1878 34.1896C63.1298 34.406 63.1376 34.5778 63.2111 34.7052C63.2944 34.8269 63.4598 34.9209 63.707 34.9872L64.4604 35.1891L64.094 36.5568L63.0739 36.2835C61.7062 35.917 61.2004 35.0692 61.5565 33.7401L62.3858 30.6453L61.6208 30.4403L61.9779 29.1073L62.7429 29.3123L63.1684 27.7243L64.8028 28.1622L64.3773 29.7502L65.8146 30.1353L65.4574 31.4683L64.0201 31.0832ZM73.1251 32.0942L66.6149 40.4872L64.8879 40.0244L67.136 37.198L66.2399 30.2493L68.0597 30.7369L68.5153 35.6668L71.398 31.6314L73.1251 32.0942Z" fill="#ECECEC"/>
<path d="M11.4567 45.971L29.865 35.9707L21.0068 54.8488L20.0401 46.5395L11.4567 45.971Z" fill="#595959"/>
<path d="M13.0453 44.5101L31.4535 34.5098L22.5954 53.3879L21.6287 45.0786L13.0453 44.5101Z" fill="#EBE9E9"/>
</svg>
