<svg width="24" height="25" viewBox="0 0 24 25" fill="none" xmlns="http://www.w3.org/2000/svg">
<path d="M19 3.7193C19.5304 3.7193 20.0391 3.93001 20.4142 4.30509C20.7893 4.68016 21 5.18887 21 5.7193V19.7193C21 20.2497 20.7893 20.7584 20.4142 21.1335C20.0391 21.5086 19.5304 21.7193 19 21.7193H5C4.46957 21.7193 3.96086 21.5086 3.58579 21.1335C3.21071 20.7584 3 20.2497 3 19.7193V5.7193C3 5.18887 3.21071 4.68016 3.58579 4.30509C3.96086 3.93001 4.46957 3.7193 5 3.7193H19ZM18.5 19.2193V13.9193C18.5 13.0547 18.1565 12.2255 17.5452 11.6141C16.9338 11.0028 16.1046 10.6593 15.24 10.6593C14.39 10.6593 13.4 11.1793 12.92 11.9593V10.8493H10.13V19.2193H12.92V14.2893C12.92 13.5193 13.54 12.8893 14.31 12.8893C14.6813 12.8893 15.0374 13.0368 15.2999 13.2993C15.5625 13.5619 15.71 13.918 15.71 14.2893V19.2193H18.5ZM6.88 9.2793C7.32556 9.2793 7.75288 9.1023 8.06794 8.78724C8.383 8.47218 8.56 8.04486 8.56 7.5993C8.56 6.6693 7.81 5.9093 6.88 5.9093C6.43178 5.9093 6.00193 6.08735 5.68499 6.40429C5.36805 6.72123 5.19 7.15108 5.19 7.5993C5.19 8.5293 5.95 9.2793 6.88 9.2793ZM8.27 19.2193V10.8493H5.5V19.2193H8.27Z" fill="#050405"/>
</svg>
