<svg width="24" height="25" viewBox="0 0 24 25" fill="none" xmlns="http://www.w3.org/2000/svg">
<path d="M22.46 6.7193C21.69 7.0693 20.86 7.2993 20 7.4093C20.88 6.8793 21.56 6.0393 21.88 5.0293C21.05 5.5293 20.13 5.8793 19.16 6.0793C18.37 5.2193 17.26 4.7193 16 4.7193C13.65 4.7193 11.73 6.6393 11.73 9.0093C11.73 9.3493 11.77 9.6793 11.84 9.9893C8.28004 9.8093 5.11004 8.0993 3.00004 5.5093C2.63004 6.1393 2.42004 6.8793 2.42004 7.6593C2.42004 9.1493 3.17004 10.4693 4.33004 11.2193C3.62004 11.2193 2.96004 11.0193 2.38004 10.7193V10.7493C2.38004 12.8293 3.86004 14.5693 5.82004 14.9593C5.19077 15.1315 4.53013 15.1555 3.89004 15.0293C4.16165 15.8818 4.69358 16.6277 5.41106 17.1622C6.12854 17.6968 6.99549 17.993 7.89004 18.0093C6.37367 19.2097 4.49404 19.8586 2.56004 19.8493C2.22004 19.8493 1.88004 19.8293 1.54004 19.7893C3.44004 21.0093 5.70004 21.7193 8.12004 21.7193C16 21.7193 20.33 15.1793 20.33 9.5093C20.33 9.3193 20.33 9.1393 20.32 8.9493C21.16 8.3493 21.88 7.5893 22.46 6.7193Z" fill="#050405"/>
</svg>
